<?xml version="1.0" encoding="utf-8"?>
<!-- Generator: Adobe Illustrator 25.0.0, SVG Export Plug-In . SVG Version: 6.00 Build 0)  -->
<svg version="1.1" xmlns="http://www.w3.org/2000/svg" xmlns:xlink="http://www.w3.org/1999/xlink" x="0px" y="0px"
	 viewBox="0 0 88 18" style="enable-background:new 0 0 88 18;" xml:space="preserve">
<style type="text/css">
	.st0{display:none;}
	.st1{display:inline;fill:#353535;}
	.st2{display:inline;fill:#FFFFFF;}
	.st3{fill:#FFFFFF;}
</style>
<g id="Layer_3" class="st0">
	<rect x="-54.5" y="-59" class="st1" width="211" height="130"/>
</g>
<g id="Border" class="st0">
	<path class="st2" d="M51.61,0.67c4.26,0,7.18-0.05,10.1,0.01C68.05,0.8,74.4,0.69,80.74,0.8c1.52,0.03,3.03,0.05,4.55,0.07
		c0.7,0.01,0.85,0.17,0.87,0.88c0.08,2.93,0.13,5.87,0.25,8.8c0.04,1.02,0.1,2.05,0.08,3.07c-0.03,1.69-0.53,2.17-2.21,2.21
		c-3.78,0.08-7.56,0.15-11.34,0.26c-4.9,0.13-9.81,0.24-14.72,0.18c-4.12-0.05-8.24-0.09-12.34-0.35c-3.9-0.25-7.8-0.28-11.7-0.18
		c-2.6,0.07-5.2,0.3-7.8,0.17c-6.72-0.32-13.44-0.18-20.15-0.23c-0.87-0.01-1.73,0.06-2.59,0.2c-0.16,0.02-0.31,0.05-0.47,0.05
		c-1.21,0.04-1.76-0.45-1.77-1.67c-0.01-3.9,0-7.8,0.01-11.71c0-0.22,0-0.43,0.01-0.65c0.01-0.42,0.22-0.66,0.64-0.7
		c0.29-0.03,0.59-0.07,0.88-0.08c3.9-0.06,7.8-0.07,11.7-0.17c3.51-0.08,7.02-0.04,10.52-0.13c5.54-0.14,11.08-0.02,16.61-0.12
		C45.51,0.65,49.23,0.7,51.61,0.67z M51.62,2c-8.05,0.07-18.81-0.11-29.57,0.08c-4.89,0.09-9.77,0.09-14.66,0.17
		C6,2.28,4.6,2.34,3.2,2.34c-0.44,0-0.59,0.18-0.58,0.6C2.63,3.61,2.61,4.28,2.6,4.95c-0.03,2.94-0.07,5.87-0.07,8.81
		c0,0.87,0.25,1.04,1.1,0.92c2.05-0.28,4.11-0.41,6.18-0.45c3.63-0.07,7.25,0.11,10.87,0.28c1.08,0.05,2.16,0.07,3.25,0.13
		c2.26,0.12,4.53,0.09,6.79,0.02c2.58-0.08,5.16-0.22,7.73-0.23c4.35,0,8.7,0.43,13.04,0.47c9,0.09,18.01,0.15,27.01-0.1
		c1.87-0.05,3.74-0.06,5.61-0.1c0.82-0.01,0.93-0.13,0.93-0.93c0-3.65-0.01-7.29-0.02-10.94C85.03,2,85.03,2,84.18,2
		C74.23,2,64.28,2,51.62,2z"/>
</g>
<g id="Bar">
	<g>
		<path class="st3" d="M45.19,4.49c-0.18-0.24-0.37-0.48-0.55-0.72c-0.18-0.25-0.2-0.51-0.01-0.76c0.2-0.25,0.43-0.24,0.74-0.16
			c0.92,0.27,1.48,1.02,2.18,1.58c0.18,0.15,0.34,0.32,0.61,0.42c-0.21-0.38-0.42-0.75-0.63-1.13c-0.16-0.29-0.27-0.6,0.04-0.85
			c0.29-0.23,0.6-0.16,0.87,0.05c0.28,0.22,0.55,0.45,0.97,0.8c-0.31-0.5-0.27-0.82,0.09-1.04c0.38-0.23,0.62,0,0.86,0.27
			c0.11,0.12,0.23,0.32,0.42,0.1c0.43-0.5,0.81-0.26,1.15,0.09c0.89,0.93,1.75,1.87,2.63,2.8c0.06-0.05,0.12-0.11,0.19-0.16
			c-0.29-0.51-0.59-1.01-0.88-1.52c-0.11-0.19-0.21-0.38-0.29-0.58c-0.13-0.31-0.15-0.63,0.16-0.85c0.32-0.23,0.6-0.07,0.83,0.18
			c1.18,1.27,2.37,2.53,3.55,3.8c0.63,0.67,1.26,1.34,1.99,1.94c-0.7-1.01-1.39-2.03-2.09-3.04c-0.4-0.58-0.82-1.16-1.22-1.74
			c-0.17-0.25-0.34-0.51-0.12-0.81c0.23-0.3,0.51-0.25,0.85-0.16c0.47,0.12,0.72,0.4,0.94,0.8c0.48,0.88,1.05,1.71,1.99,2.24
			c-0.34-0.6-0.68-1.2-1.01-1.8c-0.1-0.17-0.2-0.34-0.28-0.52c-0.14-0.3-0.11-0.58,0.15-0.81c0.29-0.25,0.56-0.13,0.79,0.09
			c0.33,0.32,0.58,0.55,0.91-0.04c0.19-0.33,0.55-0.21,0.83,0.01c0.53,0.41,1.02,0.86,1.55,1.29c-0.13-0.21-0.26-0.42-0.38-0.63
			c-0.18-0.3-0.24-0.6,0.08-0.85c0.3-0.24,0.58-0.13,0.85,0.1c0.94,0.82,1.75,1.75,2.58,2.68c0.12,0.13,0.24,0.26,0.44,0.33
			c-0.31-0.47-0.63-0.94-0.94-1.41c-0.13-0.2-0.27-0.39-0.4-0.59c-0.19-0.3-0.45-0.62-0.08-0.94c0.38-0.34,0.73-0.14,1.04,0.15
			c0.91,0.84,1.79,1.72,2.61,2.66c0.57,0.65,1.12,1.32,1.78,1.9C70.18,6.7,69.4,5.75,68.61,4.8c-0.29-0.35-0.59-0.69-0.88-1.04
			c-0.25-0.31-0.35-0.64-0.02-0.94c0.32-0.29,0.61-0.13,0.88,0.12c0.14,0.13,0.28,0.26,0.49,0.45c0.05-0.37,0.08-0.69,0.43-0.81
			c0.36-0.12,0.6,0.12,0.84,0.31c0.73,0.56,1.45,1.14,2.25,1.63c-0.15-0.24-0.31-0.48-0.46-0.72c-0.18-0.28-0.28-0.58-0.02-0.86
			c0.27-0.28,0.57-0.21,0.86-0.02c0.32,0.2,0.63,0.39,1.01,0.63c-0.03-0.41-0.02-0.78,0.37-0.94c0.36-0.15,0.6,0.11,0.85,0.29
			c0.32,0.23,0.59,0.52,0.88-0.07c0.16-0.31,0.51-0.21,0.79-0.04c0.23,0.15,0.46,0.31,0.68,0.47c0.22,0.15,0.45,0.31,0.69,0.48
			c0.03-0.88,0.42-1.11,1.13-0.68c0.51,0.3,1,0.62,1.59,0.99c-0.19-0.38-0.43-0.71-0.11-1.02c0.31-0.31,0.66-0.16,0.99,0
			c0.72,0.34,1.38,0.76,2,1.26c0.46,0.38,0.48,0.63,0.05,1.01c-0.24,0.21-0.18,0.34-0.04,0.54c0.12,0.18,0.26,0.37,0.3,0.57
			c0.09,0.42-0.33,0.77-0.74,0.63c-0.18-0.06-0.34-0.16-0.58-0.16c0.25,0.27,0.5,0.53,0.75,0.8c0.22,0.23,0.47,0.46,0.36,0.82
			c-0.11,0.37-0.46,0.37-0.87,0.41c0.24,0.26,0.42,0.46,0.6,0.66c0.26,0.3,0.47,0.63,0.11,0.98c-0.33,0.32-0.64,0.16-0.93-0.11
			c-0.08-0.07-0.13-0.2-0.3-0.17c0.43,0.48,0.86,0.94,1.28,1.4c0.27,0.3,0.39,0.62,0.05,0.93c-0.35,0.32-0.65,0.12-0.92-0.16
			c-2.03-2.04-4.18-3.96-6.49-5.68c-0.09-0.07-0.15-0.18-0.38-0.16c1.07,1,2.1,1.97,3.13,2.93c0.89,0.83,1.79,1.66,2.68,2.5
			c0.27,0.25,0.54,0.54,0.21,0.9c-0.32,0.35-0.68,0.23-1.01-0.02c-1.22-0.96-2.44-1.93-3.66-2.9c-0.21-0.17-0.43-0.33-0.75-0.42
			c0.24,0.3,0.49,0.6,0.73,0.9c0.49,0.62,0.97,1.24,1.45,1.87c0.21,0.28,0.41,0.58,0.08,0.89c-0.35,0.33-0.69,0.19-1-0.09
			c-1.21-1.07-2.42-2.15-3.62-3.22c-0.14-0.12-0.28-0.25-0.42-0.37c-0.01,0.01-0.03,0.03-0.04,0.04c0.49,0.8,0.99,1.6,1.48,2.4
			c0.11,0.18,0.22,0.38,0.3,0.58c0.1,0.28,0.05,0.55-0.2,0.74c-0.25,0.2-0.49,0.1-0.7-0.06c-0.68-0.51-1.32-1.07-1.93-1.66
			c-0.1-0.09-0.2-0.19-0.37-0.22c0.2,0.26,0.41,0.53,0.61,0.79c0.27,0.34,0.54,0.7,0.16,1.1c-0.42,0.44-0.76,0.02-1.07-0.22
			c-1-0.77-1.92-1.64-2.8-2.54c-0.09-0.09-0.15-0.23-0.38-0.23c0.5,0.68,0.97,1.32,1.45,1.96c0.22,0.29,0.37,0.58,0.06,0.89
			c-0.33,0.33-0.63,0.19-0.94-0.05c-1.48-1.17-2.67-2.62-3.81-4.11c-0.18-0.23-0.36-0.47-0.63-0.65c0.16,0.26,0.32,0.52,0.48,0.78
			c0.61,0.99,1.22,1.98,1.82,2.98c0.22,0.37,0.56,0.76,0.07,1.14c-0.45,0.34-0.76,0-1.02-0.35c-0.6,0.66-0.85,0.66-1.54,0.08
			c-1.02-0.85-1.65-2-2.37-3.08c-0.35-0.53-0.67-1.09-1.24-1.45c0.65,0.98,1.31,1.95,1.96,2.93c0.19,0.28,0.37,0.56,0.55,0.84
			c0.15,0.23,0.22,0.47,0.03,0.71c-0.18,0.22-0.41,0.28-0.69,0.23c-0.63-0.13-1.11-0.5-1.56-0.92c-0.27-0.25-0.51-0.55-0.86-0.73
			c0.18,0.24,0.36,0.48,0.54,0.72c0.21,0.29,0.26,0.59-0.01,0.86c-0.28,0.28-0.6,0.19-0.84-0.06c-0.3-0.31-0.49-0.43-0.84-0.01
			c-0.26,0.31-0.66,0.12-0.95-0.13c-0.83-0.73-1.66-1.46-2.48-2.19c-0.15-0.13-0.29-0.27-0.5-0.34c0.43,0.6,0.85,1.19,1.28,1.79
			c0.2,0.28,0.43,0.56,0.1,0.89c-0.34,0.33-0.67,0.22-1-0.05c-0.84-0.69-1.64-1.41-2.4-2.19c-0.13-0.13-0.27-0.26-0.48-0.32
			c0.44,0.62,0.88,1.24,1.32,1.86c0.21,0.3,0.35,0.6,0.01,0.88c-0.34,0.29-0.66,0.19-0.92-0.13c-0.39-0.46-0.77-0.92-1.22-1.33
			c0.13,0.33,0.26,0.65,0.37,0.98c0.1,0.3,0.09,0.59-0.22,0.78c-0.31,0.19-0.57,0.06-0.79-0.16c-0.63-0.62-1.26-1.25-1.94-1.84
			c0.18,0.31,0.36,0.61,0.53,0.93c0.17,0.32,0.13,0.62-0.18,0.83"/>
		<path class="st3" d="M13.54,6.74c-0.49-0.8-0.99-1.6-1.48-2.4c-0.11-0.18-0.22-0.38-0.3-0.58c-0.1-0.28-0.05-0.55,0.2-0.74
			c0.25-0.2,0.49-0.1,0.7,0.06c0.68,0.51,1.32,1.07,1.93,1.66c0.1,0.09,0.2,0.19,0.37,0.22c-0.2-0.26-0.41-0.53-0.61-0.79
			c-0.27-0.34-0.54-0.7-0.16-1.1c0.42-0.44,0.76-0.02,1.07,0.22c1,0.77,1.92,1.64,2.8,2.54c0.09,0.09,0.15,0.23,0.38,0.23
			c-0.5-0.68-0.97-1.32-1.45-1.96c-0.22-0.29-0.37-0.58-0.06-0.89c0.33-0.33,0.63-0.19,0.94,0.05c1.48,1.17,2.67,2.62,3.81,4.11
			c0.18,0.23,0.36,0.47,0.63,0.65c-0.16-0.26-0.32-0.52-0.48-0.78c-0.61-0.99-1.22-1.98-1.82-2.98c-0.22-0.37-0.56-0.76-0.07-1.14
			c0.45-0.34,0.76,0,1.02,0.35c0.6-0.66,0.85-0.66,1.54-0.08c1.02,0.85,1.65,2,2.37,3.08C25.21,7,25.53,7.56,26.1,7.92
			c-0.65-0.98-1.31-1.95-1.96-2.93c-0.19-0.28-0.37-0.56-0.55-0.84c-0.15-0.23-0.22-0.47-0.03-0.71c0.18-0.22,0.41-0.28,0.69-0.23
			c0.63,0.13,1.11,0.5,1.56,0.92c0.27,0.25,0.51,0.55,0.86,0.73c-0.18-0.24-0.36-0.48-0.54-0.72c-0.21-0.29-0.26-0.59,0.01-0.86
			c0.28-0.28,0.6-0.19,0.84,0.06c0.3,0.31,0.49,0.43,0.84,0.01c0.26-0.31,0.66-0.12,0.95,0.13c0.83,0.73,1.66,1.46,2.48,2.19
			c0.15,0.13,0.29,0.27,0.5,0.34c-0.43-0.6-0.85-1.19-1.28-1.79c-0.2-0.28-0.43-0.56-0.1-0.89c0.34-0.33,0.67-0.22,1,0.05
			c0.84,0.69,1.64,1.41,2.4,2.19c0.13,0.13,0.27,0.26,0.48,0.32c-0.44-0.62-0.88-1.24-1.32-1.86c-0.21-0.3-0.35-0.6-0.01-0.88
			c0.34-0.29,0.66-0.19,0.92,0.13c0.39,0.46,0.77,0.92,1.22,1.33c-0.13-0.33-0.26-0.65-0.37-0.98c-0.1-0.3-0.09-0.59,0.22-0.78
			c0.31-0.19,0.57-0.06,0.79,0.16c0.63,0.62,1.26,1.25,1.94,1.84c-0.18-0.31-0.36-0.61-0.53-0.93C36.96,3.61,37,3.31,37.31,3.1
			c0.3-0.21,0.57-0.07,0.78,0.17c0.59,0.66,1.17,1.33,1.84,1.92c-0.25-0.3-0.5-0.61-0.76-0.91c-0.29-0.33-0.35-0.68-0.02-1
			c0.33-0.32,0.61-0.07,0.88,0.14c1.49,1.2,2.63,2.71,3.86,4.15c0.15,0.17,0.3,0.35,0.49,0.49c-0.84-1.33-1.82-2.55-2.77-3.8
			c-0.26-0.35-0.72-0.72-0.26-1.17c0.46-0.45,0.82,0.02,1.17,0.27c0.19,0.13,0.36,0.3,0.62,0.53c-0.05-0.44,0.07-0.73,0.44-0.84
			c0.37-0.11,0.59,0.14,0.82,0.35c1.54,1.4,2.74,3.09,3.96,4.77c1.05,1.46,2.14,2.88,3.49,4.08c0.27,0.24,0.52,0.48,0.25,0.85
			c-0.26,0.35-0.6,0.32-0.94,0.1c-0.05-0.03-0.1-0.05-0.16-0.07c-0.44,0.81-0.72,0.85-1.38,0.22c-0.59-0.56-1.12-1.16-1.71-1.74
			c0.19,0.43,0.38,0.87,0.57,1.3c0.15,0.34,0.18,0.66-0.19,0.87c-0.34,0.19-0.59,0.05-0.82-0.22c-0.38-0.44-0.76-0.87-1.19-1.29
			c0.1,0.48,0.58,1.01-0.05,1.38C45.59,14.02,45.45,13.18,45,13c-0.13,0.02-0.09,0.15-0.12,0.23c-0.24,0.63-0.65,0.72-1.1,0.22
			c-0.5-0.55-0.97-1.12-1.55-1.61c0.18,0.24,0.37,0.48,0.55,0.72c0.18,0.25,0.2,0.51,0.01,0.76c-0.2,0.25-0.43,0.24-0.74,0.16
			c-0.92-0.27-1.48-1.02-2.18-1.58c-0.18-0.15-0.34-0.32-0.61-0.42c0.21,0.38,0.42,0.75,0.63,1.13c0.16,0.29,0.27,0.6-0.04,0.85
			c-0.29,0.23-0.6,0.16-0.87-0.05c-0.28-0.22-0.55-0.45-0.97-0.8c0.31,0.5,0.27,0.82-0.09,1.04c-0.38,0.23-0.62,0-0.86-0.27
			c-0.11-0.12-0.23-0.32-0.42-0.1c-0.43,0.5-0.81,0.26-1.15-0.09c-0.89-0.93-1.75-1.87-2.63-2.8c-0.06,0.05-0.12,0.11-0.19,0.16
			c0.29,0.51,0.59,1.01,0.88,1.52c0.11,0.19,0.21,0.38,0.29,0.58c0.13,0.31,0.15,0.63-0.16,0.85c-0.32,0.23-0.6,0.07-0.83-0.18
			c-1.18-1.27-2.37-2.53-3.55-3.8c-0.63-0.67-1.26-1.34-1.99-1.94c0.7,1.01,1.39,2.03,2.09,3.04c0.4,0.58,0.82,1.16,1.22,1.74
			c0.17,0.25,0.34,0.51,0.12,0.81c-0.23,0.3-0.51,0.25-0.85,0.16c-0.47-0.12-0.72-0.4-0.94-0.8c-0.48-0.88-1.05-1.71-1.99-2.24
			c0.34,0.6,0.68,1.2,1.01,1.8c0.1,0.17,0.2,0.34,0.28,0.52c0.14,0.3,0.11,0.58-0.15,0.81c-0.29,0.25-0.56,0.13-0.79-0.09
			c-0.33-0.32-0.58-0.55-0.91,0.04c-0.19,0.33-0.55,0.21-0.83-0.01c-0.53-0.41-1.02-0.86-1.55-1.29c0.13,0.21,0.26,0.42,0.38,0.63
			c0.18,0.3,0.24,0.6-0.08,0.85c-0.3,0.24-0.58,0.13-0.85-0.1c-0.94-0.82-1.75-1.75-2.58-2.68c-0.12-0.13-0.24-0.26-0.44-0.33
			c0.31,0.47,0.63,0.94,0.94,1.41c0.13,0.2,0.27,0.39,0.4,0.59c0.19,0.3,0.45,0.62,0.08,0.94c-0.38,0.34-0.73,0.14-1.04-0.15
			c-0.91-0.84-1.79-1.72-2.61-2.66c-0.57-0.65-1.12-1.32-1.78-1.9c0.79,0.95,1.57,1.91,2.36,2.86c0.29,0.35,0.59,0.69,0.88,1.04
			c0.25,0.31,0.35,0.64,0.02,0.94c-0.32,0.29-0.61,0.13-0.88-0.12c-0.14-0.13-0.28-0.26-0.49-0.45c-0.05,0.37-0.08,0.69-0.43,0.81
			c-0.36,0.12-0.6-0.12-0.84-0.31c-0.73-0.56-1.45-1.14-2.25-1.63c0.16,0.24,0.31,0.48,0.46,0.72c0.18,0.28,0.28,0.58,0.02,0.86
			c-0.27,0.28-0.57,0.21-0.86,0.02c-0.32-0.2-0.63-0.39-1.01-0.63c0.03,0.41,0.02,0.78-0.37,0.94c-0.36,0.15-0.6-0.11-0.85-0.29
			c-0.32-0.23-0.59-0.52-0.88,0.07c-0.16,0.31-0.51,0.21-0.79,0.04c-0.23-0.15-0.46-0.31-0.68-0.47c-0.22-0.15-0.45-0.31-0.69-0.48
			c-0.03,0.88-0.42,1.11-1.13,0.68c-0.51-0.3-1-0.62-1.59-0.99c0.19,0.38,0.43,0.71,0.11,1.02c-0.31,0.31-0.66,0.16-0.99,0
			c-0.72-0.34-1.38-0.76-2-1.26c-0.46-0.38-0.48-0.63-0.05-1.01c0.24-0.21,0.18-0.34,0.04-0.54c-0.12-0.18-0.26-0.37-0.3-0.57
			C3.17,9.53,3.59,9.18,4,9.32c0.18,0.06,0.34,0.16,0.58,0.16c-0.25-0.27-0.5-0.53-0.75-0.8C3.61,8.45,3.36,8.22,3.47,7.86
			c0.11-0.37,0.46-0.37,0.87-0.41c-0.24-0.26-0.42-0.46-0.6-0.66C3.48,6.49,3.28,6.15,3.64,5.8c0.33-0.32,0.64-0.16,0.93,0.11
			c0.08,0.07,0.13,0.2,0.3,0.17c-0.43-0.48-0.86-0.94-1.28-1.4C3.32,4.39,3.2,4.06,3.54,3.75c0.35-0.32,0.65-0.12,0.92,0.16
			c2.03,2.04,4.18,3.96,6.49,5.68c0.09,0.07,0.15,0.18,0.38,0.16c-1.07-1-2.1-1.97-3.13-2.93C7.3,5.99,6.4,5.16,5.5,4.33
			C5.23,4.07,4.96,3.79,5.3,3.43C5.61,3.08,5.98,3.2,6.3,3.45c1.22,0.96,2.44,1.93,3.66,2.9c0.21,0.17,0.43,0.33,0.75,0.42
			c-0.24-0.3-0.49-0.6-0.73-0.9C9.51,5.24,9.02,4.62,8.54,3.99C8.34,3.72,8.14,3.41,8.46,3.1c0.35-0.33,0.69-0.19,1,0.09
			c1.21,1.07,2.42,2.15,3.62,3.22c0.14,0.12,0.28,0.25,0.42,0.37C13.51,6.77,13.53,6.75,13.54,6.74z"/>
	</g>
</g>
</svg>
