<?xml version="1.0" encoding="utf-8"?>
<!-- Generator: Adobe Illustrator 25.0.0, SVG Export Plug-In . SVG Version: 6.00 Build 0)  -->
<svg version="1.1" xmlns="http://www.w3.org/2000/svg" xmlns:xlink="http://www.w3.org/1999/xlink" x="0px" y="0px"
	 viewBox="0 0 154 130" style="enable-background:new 0 0 154 130;" xml:space="preserve">
<style type="text/css">
	.st0{display:none;}
	.st1{display:inline;fill:#353535;}
	.st2{fill:#C2E044;}
	.st3{fill:#E2FF6F;}
	.st4{fill:#CC8B5A;}
	.st5{fill:#FFAB5D;}
	.st6{fill:#FFFFFF;}
	.st7{font-family:'SpaceGrotesk-Bold';}
	.st8{font-size:15.2674px;}
</style>
<g id="Layer_2" class="st0">
	<rect class="st1" width="154" height="130"/>
</g>
<g id="Layer_1">
	<g>
		<g>
			<g>
				<g>
					<path class="st2" d="M19.65,75.18c1.53,1.54,4.02,1.54,5.56,0l0,0c1.53-1.53,1.53-4.02,0-5.56l-11.9-11.9
						c-1.53-1.53-4.02-1.54-5.56,0l0,0c-1.54,1.53-1.53,4.02,0,5.56l7.04,7.02L19.65,75.18z"/>
					<path class="st3" d="M25.21,45.81c-1.54-1.54-4.02-1.53-5.56,0l-11.9,11.9c-1.5,1.5-1.6,3.85-0.16,5.4l0.06,0.06l0.08,0.08
						c0.01,0.01,0.01,0.01,0.02,0.02c0.01,0.01,0.01,0.01,0.02,0.02l7.02,7.01c-3.78-3.78,1.3-9.81,1.3-9.81l0,0l9.13-9.13
						C26.75,49.83,26.75,47.35,25.21,45.81z"/>
				</g>
				<g>
					<path class="st4" d="M34.87,60.48c-1.54-1.54-4.02-1.54-5.56,0l0,0c-1.53,1.53-1.53,4.02,0,5.56l11.9,11.9
						c1.54,1.53,4.02,1.54,5.56,0l0,0c1.54-1.53,1.53-4.02,0-5.56l-7.04-7.02L34.87,60.48z"/>
					<path class="st5" d="M29.31,89.85c1.54,1.53,4.02,1.53,5.56,0l11.9-11.9c1.5-1.5,1.6-3.86,0.16-5.4l-0.06-0.07l-0.08-0.08
						c-0.01-0.01-0.01-0.01-0.02-0.02c-0.01-0.01-0.01-0.01-0.02-0.02l-7.02-7.01c3.78,3.78-1.29,9.81-1.29,9.81l0,0l-9.13,9.13
						C27.78,85.83,27.78,88.31,29.31,89.85z"/>
				</g>
				<path class="st6" d="M24.83,88.28c-0.63,2.01-2.76,3.12-4.77,2.5l0,0c-2.01-0.63-3.12-2.76-2.5-4.77l12.31-38.7
					c0.63-2.01,2.76-3.12,4.77-2.5l0,0c2.01,0.63,3.12,2.76,2.5,4.77L24.83,88.28z"/>
			</g>
		</g>
		<text transform="matrix(1 0 0 1 51.8057 63.3896)"><tspan x="0" y="0" class="st6 st7 st8">Shenanigans</tspan><tspan x="0" y="18.32" class="st6 st7 st8">Inc</tspan></text>
	</g>
</g>
</svg>
