<?xml version="1.0" encoding="utf-8"?>
<!-- Generator: Adobe Illustrator 25.0.0, SVG Export Plug-In . SVG Version: 6.00 Build 0)  -->
<svg version="1.1" id="Layer_1" xmlns="http://www.w3.org/2000/svg" xmlns:xlink="http://www.w3.org/1999/xlink" x="0px" y="0px"
	 viewBox="0 0 256 256" style="enable-background:new 0 0 256 256;" xml:space="preserve">
<style type="text/css">
	.st0{fill:#333333;}
</style>
<path class="st0" d="M23.36,6.37C13.76,6.37,6,14.13,6,23.73V75.8c0,9.6,7.76,17.36,17.36,17.36S40.71,85.4,40.71,75.8V41.09h34.71
	c9.6,0,17.36-7.76,17.36-17.36S85.03,6.37,75.43,6.37H23.36z M40.71,179.94c0-9.6-7.76-17.36-17.36-17.36S6,170.34,6,179.94v52.07
	c0,9.6,7.76,17.36,17.36,17.36h52.07c9.6,0,17.36-7.76,17.36-17.36c0-9.6-7.76-17.36-17.36-17.36H40.71V179.94z M179.57,6.37
	c-9.6,0-17.36,7.76-17.36,17.36s7.76,17.36,17.36,17.36h34.71V75.8c0,9.6,7.76,17.36,17.36,17.36S249,85.4,249,75.8V23.73
	c0-9.6-7.76-17.36-17.36-17.36H179.57z M249,179.94c0-9.6-7.76-17.36-17.36-17.36s-17.36,7.76-17.36,17.36v34.71h-34.71
	c-9.6,0-17.36,7.76-17.36,17.36c0,9.6,7.76,17.36,17.36,17.36h52.07c9.6,0,17.36-7.76,17.36-17.36V179.94z"/>
</svg>
