<?xml version="1.0" encoding="utf-8"?>
<!-- Generator: Adobe Illustrator 25.0.0, SVG Export Plug-In . SVG Version: 6.00 Build 0)  -->
<svg version="1.1" xmlns="http://www.w3.org/2000/svg" xmlns:xlink="http://www.w3.org/1999/xlink" x="0px" y="0px"
	 viewBox="0 0 204 38" style="enable-background:new 0 0 204 38;" xml:space="preserve">
<style type="text/css">
	.st0{display:none;}
	.st1{display:inline;fill:#353535;}
	.st2{fill:#C2E044;}
	.st3{fill:#E2FF6F;}
	.st4{fill:#CC8B5A;}
	.st5{fill:#FFAB5D;}
	.st6{fill:#4D4D4D;}
	.st7{fill:#333333;}
	.st8{font-family:'SpaceGrotesk-Bold';}
	.st9{font-size:20px;}
</style>
<g id="Layer_2" class="st0">
	<rect x="-5" y="-46" class="st1" width="211" height="130"/>
</g>
<g id="Layer_1">
	<g>
		<g>
			<g>
				<g>
					<path class="st2" d="M11.83,24.59c1.2,1.2,3.16,1.2,4.36,0l0,0c1.2-1.2,1.2-3.16,0-4.36L6.85,10.9c-1.2-1.2-3.16-1.2-4.36,0
						l0,0c-1.2,1.2-1.2,3.16,0,4.36l5.52,5.51L11.83,24.59z"/>
					<path class="st3" d="M16.19,1.56c-1.2-1.2-3.16-1.2-4.36,0l-9.33,9.34c-1.18,1.18-1.25,3.02-0.12,4.23l0.05,0.05l0.06,0.06
						c0,0,0.01,0.01,0.01,0.01c0,0.01,0.01,0.01,0.02,0.01l5.51,5.5c-2.96-2.97,1.02-7.69,1.02-7.69l0,0l7.16-7.16
						C17.39,4.71,17.39,2.76,16.19,1.56z"/>
				</g>
				<g>
					<path class="st4" d="M23.77,13.06c-1.2-1.2-3.16-1.2-4.36,0l0,0c-1.2,1.2-1.2,3.16,0,4.36l9.34,9.34c1.2,1.2,3.16,1.2,4.36,0
						l0,0c1.2-1.2,1.2-3.16,0-4.36l-5.52-5.51L23.77,13.06z"/>
					<path class="st5" d="M19.41,36.1c1.2,1.2,3.16,1.2,4.36,0l9.33-9.33c1.18-1.18,1.25-3.02,0.12-4.23l-0.05-0.05l-0.06-0.06
						c0,0-0.01-0.01-0.01-0.01c0-0.01-0.01-0.01-0.02-0.01l-5.51-5.5c2.97,2.96-1.02,7.69-1.02,7.69l0,0l-7.16,7.16
						C18.2,32.94,18.2,34.89,19.41,36.1z"/>
				</g>
				<path class="st6" d="M15.89,34.87c-0.49,1.57-2.17,2.45-3.74,1.96l0,0c-1.57-0.49-2.45-2.17-1.96-3.74l9.66-30.35
					c0.49-1.57,2.17-2.45,3.74-1.96l0,0c1.57,0.49,2.45,2.17,1.96,3.74L15.89,34.87z"/>
			</g>
		</g>
		<text transform="matrix(1 0 0 1 39.0469 25.3452)" class="st7 st8 st9">Shenanigans Inc</text>
	</g>
</g>
</svg>
