<?xml version="1.0" encoding="utf-8"?>
<!-- Generator: Adobe Illustrator 25.0.0, SVG Export Plug-In . SVG Version: 6.00 Build 0)  -->
<svg version="1.1" id="Layer_1" xmlns="http://www.w3.org/2000/svg" xmlns:xlink="http://www.w3.org/1999/xlink" x="0px" y="0px"
	 viewBox="0 0 256 256" style="enable-background:new 0 0 256 256;" xml:space="preserve">
<style type="text/css">
	.st0{fill:#C2E044;}
	.st1{fill:#E2FF6F;}
	.st2{fill:#CC8B5A;}
	.st3{fill:#FFAB5D;}
	.st4{fill:#FFFFFF;}
</style>
<g>
	<g>
		<g>
			<path class="st0" d="M91.51,163.44c7.33,7.33,19.22,7.33,26.55,0l0,0c7.33-7.33,7.33-19.22,0-26.55L61.21,80.03
				c-7.33-7.33-19.22-7.33-26.55,0l0,0c-7.33,7.33-7.33,19.22,0,26.55l33.63,33.55L91.51,163.44z"/>
			<path class="st1" d="M118.06,23.14c-7.33-7.33-19.22-7.33-26.55,0L34.66,80c-7.18,7.18-7.63,18.41-0.75,25.77l0.29,0.31
				l0.38,0.38c0.03,0.03,0.05,0.06,0.08,0.09c0.03,0.03,0.06,0.06,0.09,0.09l33.54,33.5c-18.06-18.06,6.19-46.85,6.19-46.85l-0.01,0
				l43.59-43.59C125.39,42.36,125.4,30.48,118.06,23.14z"/>
		</g>
		<g>
			<path class="st2" d="M164.21,93.21c-7.33-7.33-19.22-7.33-26.55,0l0,0c-7.33,7.33-7.33,19.22,0,26.55l56.86,56.86
				c7.33,7.33,19.22,7.33,26.55,0l0,0c7.33-7.33,7.33-19.22,0-26.55l-33.63-33.55L164.21,93.21z"/>
			<path class="st3" d="M137.66,233.5c7.33,7.33,19.22,7.33,26.55,0l56.85-56.85c7.18-7.18,7.63-18.41,0.75-25.77l-0.29-0.31
				l-0.38-0.38c-0.03-0.03-0.05-0.06-0.08-0.09c-0.03-0.03-0.06-0.06-0.09-0.09l-33.54-33.5c18.06,18.06-6.19,46.85-6.19,46.85l0,0
				l-43.59,43.59C130.33,214.28,130.33,226.17,137.66,233.5z"/>
		</g>
		<path class="st4" d="M116.24,226.02c-3,9.58-13.19,14.92-22.78,11.92l0,0c-9.58-3-14.92-13.19-11.92-22.77l58.81-184.85
			c3-9.58,13.2-14.92,22.78-11.92l0,0c9.58,3,14.92,13.19,11.92,22.78L116.24,226.02z"/>
	</g>
</g>
</svg>
